<svg width="563" height="431" viewBox="0 0 563 431" fill="none" xmlns="http://www.w3.org/2000/svg">
<path fill-rule="evenodd" clip-rule="evenodd" d="M592.539 57.579C611.05 43.4641 612.008 13.5999 594.679 -9.12469C577.351 -31.8493 548.298 -38.8288 529.787 -24.714L395.802 77.456C425.525 97.1846 447.846 125.84 460.004 158.643L592.539 57.579ZM206.245 352.145C177.333 331.411 155.993 302.001 144.992 268.709L20.7679 363.436C2.25766 377.551 1.29965 407.415 18.6281 430.139C35.9566 452.864 65.0096 459.843 83.5198 445.729L206.245 352.145Z" fill="#65B2FF"/>
<path d="M239.367 455.882C107.168 420.459 28.7157 284.575 64.1383 152.376C99.5609 20.177 235.445 -58.2758 367.644 -22.8531C499.843 12.5695 578.296 148.454 542.873 280.653C507.451 412.852 371.566 491.304 239.367 455.882ZM346.211 57.1372C258.189 33.5519 167.714 85.7878 144.129 173.809C120.543 261.831 172.779 352.306 260.801 375.891C348.822 399.477 439.298 347.241 462.883 259.219C486.468 171.198 434.232 80.7225 346.211 57.1372Z" fill="#003A92"/>
<path d="M276.45 317.538C220.684 302.596 187.59 245.276 202.533 189.51C217.475 133.744 274.795 100.651 330.561 115.593C386.327 130.535 419.421 187.855 404.478 243.621C389.536 299.387 332.216 332.481 276.45 317.538Z" fill="#0A1C37"/>
</svg>
