<svg width="23" height="22" viewBox="0 0 23 22" fill="none" xmlns="http://www.w3.org/2000/svg">
<path fill-rule="evenodd" clip-rule="evenodd" d="M21.9663 3.08798C22.4558 3.76534 22.3034 4.71123 21.6261 5.20068L2.99896 18.6602C2.3216 19.1496 1.37571 18.9973 0.886262 18.3199C0.396813 17.6426 0.54915 16.6967 1.22651 16.2072L19.8536 2.74772C20.531 2.25828 21.4769 2.41061 21.9663 3.08798Z" fill="#94CAFF"/>
<path d="M9.89891 16.6027C6.71865 15.7505 4.83135 12.4816 5.68349 9.30137C6.53564 6.12112 9.80455 4.23381 12.9848 5.08596C16.1651 5.9381 18.0524 9.20701 17.2002 12.3873C16.3481 15.5675 13.0792 17.4548 9.89891 16.6027Z" fill="#1E1E1E"/>
<path d="M9.15065 19.397C4.42734 18.1314 1.62432 13.2764 2.88992 8.55313C4.15553 3.82982 9.01051 1.02679 13.7338 2.2924C18.4571 3.55801 21.2602 8.41298 19.9945 13.1363C18.7289 17.8596 13.874 20.6626 9.15065 19.397ZM12.968 5.15036C9.82313 4.30768 6.59056 6.17401 5.74788 9.31891C4.90521 12.4638 6.77153 15.6964 9.91644 16.5391C13.0613 17.3817 16.2939 15.5154 17.1366 12.3705C17.9793 9.2256 16.1129 5.99303 12.968 5.15036Z" fill="#005BE3"/>
<path d="M10.4756 14.4517C8.48321 13.9179 7.3008 11.8699 7.83468 9.87743C8.36855 7.88499 10.4165 6.70259 12.409 7.23646C14.4014 7.77034 15.5838 9.81832 15.0499 11.8108C14.5161 13.8032 12.4681 14.9856 10.4756 14.4517Z" fill="white"/>
</svg>
