<svg width="90" height="22" viewBox="0 0 90 22" fill="none" xmlns="http://www.w3.org/2000/svg">
<path d="M81.2961 21.2069C80.2482 21.2069 79.3381 21.0322 78.566 20.6829C77.7938 20.3336 77.1963 19.8372 76.7734 19.1937C76.3506 18.5319 76.1392 17.7689 76.1392 16.9048C76.1392 16.0775 76.323 15.3421 76.6907 14.6986C77.0584 14.0368 77.6283 13.4852 78.4005 13.044C79.1727 12.6027 80.147 12.2902 81.3237 12.1064L86.2324 11.3066V14.0643L82.0131 14.7814C81.2961 14.91 80.7629 15.1399 80.4136 15.4708C80.0643 15.8017 79.8897 16.2338 79.8897 16.7669C79.8897 17.2817 80.0827 17.6953 80.4688 18.0079C80.8733 18.302 81.3696 18.4491 81.958 18.4491C82.7117 18.4491 83.3736 18.2929 83.9435 17.9803C84.5318 17.6494 84.9823 17.199 85.2948 16.629C85.6257 16.0591 85.7912 15.434 85.7912 14.7538V10.893C85.7912 10.2495 85.5338 9.71633 85.019 9.29348C84.5226 8.85224 83.8608 8.63162 83.0335 8.63162C82.2613 8.63162 81.5719 8.84305 80.9652 9.2659C80.3769 9.67037 79.9448 10.2127 79.669 10.893L76.7183 9.45894C77.0124 8.66839 77.4721 7.98815 78.0971 7.41822C78.7406 6.82991 79.4944 6.37029 80.3585 6.03936C81.2226 5.70843 82.1602 5.54297 83.1714 5.54297C84.4031 5.54297 85.4878 5.77278 86.4255 6.2324C87.3631 6.67364 88.0893 7.29872 88.6041 8.10765C89.1372 8.8982 89.4038 9.82664 89.4038 10.893V20.8759H85.9842V18.3112L86.7564 18.2561C86.3703 18.8996 85.9107 19.4419 85.3775 19.8831C84.8444 20.306 84.2377 20.6369 83.5574 20.8759C82.8772 21.0965 82.1234 21.2069 81.2961 21.2069Z" fill="white"/>
<path d="M66.4321 20.8765V5.87445H69.8241V9.2113L69.5484 8.71491C69.8977 7.59343 70.44 6.81207 71.1754 6.37084C71.9292 5.9296 72.8301 5.70898 73.878 5.70898H74.7605V8.90795H73.4643C72.4348 8.90795 71.6075 9.22968 70.9824 9.87315C70.3573 10.4982 70.0448 11.3807 70.0448 12.5206V20.8765H66.4321Z" fill="white"/>
<path d="M56.6616 21.2069C55.1172 21.2069 53.766 20.8575 52.6077 20.1589C51.4495 19.4603 50.5486 18.5135 49.9051 17.3185C49.2617 16.1234 48.9399 14.7997 48.9399 13.3473C48.9399 11.8398 49.2617 10.5069 49.9051 9.34863C50.567 8.172 51.4587 7.24357 52.5801 6.56333C53.72 5.88309 54.9886 5.54297 56.3858 5.54297C57.5624 5.54297 58.592 5.73601 59.4745 6.12209C60.3753 6.50817 61.1383 7.04133 61.7634 7.72157C62.3885 8.40181 62.8665 9.18317 63.1974 10.0656C63.5283 10.9297 63.6938 11.8674 63.6938 12.8785C63.6938 13.1359 63.6754 13.4025 63.6386 13.6783C63.6202 13.954 63.5743 14.193 63.5007 14.3953H51.9183V11.6375H61.46L59.7502 12.9337C59.9157 12.088 59.8697 11.3342 59.6123 10.6723C59.3733 10.0105 58.9689 9.48652 58.3989 9.10044C57.8474 8.71435 57.1763 8.52131 56.3858 8.52131C55.632 8.52131 54.961 8.71435 54.3727 9.10044C53.7843 9.46813 53.3339 10.0197 53.0214 10.7551C52.7272 11.4721 52.6169 12.3454 52.6904 13.3749C52.6169 14.2942 52.7364 15.1123 53.049 15.8293C53.3799 16.5279 53.8579 17.0703 54.483 17.4563C55.1264 17.8424 55.8618 18.0355 56.6892 18.0355C57.5165 18.0355 58.2151 17.8608 58.785 17.5115C59.3733 17.1622 59.833 16.6934 60.1639 16.1051L63.0871 17.5391C62.7929 18.2561 62.3333 18.8904 61.7082 19.4419C61.0831 19.9935 60.3385 20.4255 59.4745 20.738C58.6288 21.0506 57.6911 21.2069 56.6616 21.2069Z" fill="white"/>
<path d="M38.7184 20.877L32.8169 5.875H36.7604L41.0349 17.6781H39.5733L43.8754 5.875H47.8189L41.9174 20.877H38.7184Z" fill="white"/>
<path d="M18.1177 20.8759V5.8739H21.5097V8.82466L21.2339 8.3007C21.5832 7.39984 22.1531 6.7196 22.9437 6.25998C23.7526 5.78197 24.6903 5.54297 25.7566 5.54297C26.8597 5.54297 27.8341 5.78197 28.6798 6.25998C29.5439 6.73798 30.2149 7.40903 30.6929 8.27312C31.1709 9.11882 31.4099 10.1024 31.4099 11.2239V20.8759H27.7973V12.0788C27.7973 11.4169 27.6686 10.847 27.4112 10.369C27.1538 9.89098 26.7953 9.52329 26.3357 9.2659C25.8945 8.99013 25.3705 8.85224 24.7638 8.85224C24.1755 8.85224 23.6515 8.99013 23.1919 9.2659C22.7323 9.52329 22.3738 9.89098 22.1164 10.369C21.859 10.847 21.7303 11.4169 21.7303 12.0788V20.8759H18.1177Z" fill="white"/>
<path d="M2.64595 20.876V9.1005H-0.00146484V5.87396H2.64595V5.37756C2.64595 4.23771 2.87576 3.2725 3.33538 2.48195C3.81339 1.67302 4.47524 1.05713 5.32095 0.634277C6.16665 0.211426 7.16862 0 8.32687 0C8.54749 0 8.78649 0.018385 9.04388 0.0551542C9.31965 0.0735399 9.54946 0.101117 9.73331 0.137886V3.25412C9.54946 3.21735 9.3748 3.19896 9.20934 3.19896C9.06226 3.18058 8.92437 3.17139 8.79568 3.17139C7.98675 3.17139 7.36166 3.35523 6.92043 3.72293C6.47919 4.07224 6.25857 4.62379 6.25857 5.37756V5.87396H12.822V9.1005H6.25857V20.876H2.64595ZM11.4707 20.876V5.87396H15.1109V20.876H11.4707Z" fill="white"/>
</svg>
