<svg width="244" height="64" viewBox="0 0 244 64" fill="none" xmlns="http://www.w3.org/2000/svg">
<path opacity="0.8" d="M77.208 60.192C76.3867 60.192 75.6667 59.984 75.048 59.568C74.4293 59.152 73.9813 58.5867 73.704 57.872L74.712 57.392C74.9573 57.9147 75.2987 58.3307 75.736 58.64C76.184 58.9493 76.6747 59.104 77.208 59.104C77.72 59.104 78.152 58.9813 78.504 58.736C78.856 58.48 79.032 58.1493 79.032 57.744C79.032 57.4453 78.9467 57.2107 78.776 57.04C78.6053 56.8587 78.408 56.72 78.184 56.624C77.96 56.528 77.7627 56.4587 77.592 56.416L76.36 56.064C75.5707 55.84 75 55.5253 74.648 55.12C74.296 54.7147 74.12 54.2453 74.12 53.712C74.12 53.2107 74.248 52.7733 74.504 52.4C74.76 52.0267 75.1067 51.7387 75.544 51.536C75.9813 51.3333 76.4667 51.232 77 51.232C77.7253 51.232 78.3813 51.424 78.968 51.808C79.5653 52.1813 79.9867 52.704 80.232 53.376L79.208 53.856C78.9947 53.376 78.6853 53.0027 78.28 52.736C77.8853 52.4587 77.4427 52.32 76.952 52.32C76.472 52.32 76.088 52.4427 75.8 52.688C75.512 52.9333 75.368 53.2427 75.368 53.616C75.368 53.904 75.4427 54.1333 75.592 54.304C75.7413 54.4747 75.912 54.6027 76.104 54.688C76.3067 54.7733 76.4827 54.8373 76.632 54.88L78.056 55.296C78.7493 55.4987 79.288 55.8133 79.672 56.24C80.0667 56.6667 80.264 57.168 80.264 57.744C80.264 58.2133 80.1307 58.6347 79.864 59.008C79.608 59.3813 79.2507 59.6747 78.792 59.888C78.3333 60.0907 77.8053 60.192 77.208 60.192ZM82.3726 60V51.424H83.5726V53.056L83.3806 52.816C83.6153 52.3147 83.962 51.9253 84.4206 51.648C84.89 51.3707 85.402 51.232 85.9566 51.232C86.618 51.232 87.2153 51.4187 87.7486 51.792C88.282 52.1653 88.6606 52.6507 88.8846 53.248L88.5486 53.264C88.762 52.6027 89.13 52.1013 89.6526 51.76C90.186 51.408 90.7726 51.232 91.4126 51.232C91.9886 51.232 92.5166 51.3707 92.9966 51.648C93.4873 51.9253 93.8766 52.3093 94.1646 52.8C94.4633 53.28 94.6126 53.824 94.6126 54.432V60H93.4126V54.896C93.4126 54.3733 93.3166 53.9307 93.1246 53.568C92.9433 53.2053 92.6926 52.928 92.3726 52.736C92.0526 52.5333 91.6846 52.432 91.2686 52.432C90.8633 52.432 90.4953 52.5333 90.1646 52.736C89.834 52.928 89.5726 53.2107 89.3806 53.584C89.1886 53.9467 89.0926 54.384 89.0926 54.896V60H87.8926V54.896C87.8926 54.3733 87.7966 53.9307 87.6046 53.568C87.4233 53.2053 87.1726 52.928 86.8526 52.736C86.5326 52.5333 86.1646 52.432 85.7486 52.432C85.3326 52.432 84.9593 52.5333 84.6286 52.736C84.3086 52.928 84.0526 53.2107 83.8606 53.584C83.6686 53.9467 83.5726 54.384 83.5726 54.896V60H82.3726ZM99.3839 60.192C98.8399 60.192 98.3545 60.0907 97.9279 59.888C97.5012 59.6747 97.1652 59.3867 96.9199 59.024C96.6745 58.6613 96.5519 58.2453 96.5519 57.776C96.5519 57.328 96.6479 56.9227 96.8399 56.56C97.0319 56.1867 97.3305 55.872 97.7359 55.616C98.1412 55.36 98.6585 55.1787 99.2879 55.072L102.648 54.512V55.6L99.5759 56.112C98.9572 56.2187 98.5092 56.416 98.2319 56.704C97.9652 56.992 97.8319 57.3333 97.8319 57.728C97.8319 58.112 97.9812 58.4373 98.2799 58.704C98.5892 58.9707 98.9839 59.104 99.4639 59.104C100.051 59.104 100.563 58.9813 101 58.736C101.437 58.48 101.779 58.1387 102.024 57.712C102.269 57.2853 102.392 56.8107 102.392 56.288V54.112C102.392 53.6 102.205 53.184 101.832 52.864C101.459 52.544 100.973 52.384 100.376 52.384C99.8532 52.384 99.3945 52.5173 98.9999 52.784C98.6052 53.04 98.3119 53.376 98.1199 53.792L97.0319 53.2C97.1919 52.8373 97.4425 52.5067 97.7839 52.208C98.1359 51.9093 98.5359 51.6747 98.9839 51.504C99.4319 51.3227 99.8959 51.232 100.376 51.232C101.005 51.232 101.56 51.3547 102.04 51.6C102.531 51.8453 102.909 52.1867 103.176 52.624C103.453 53.0507 103.592 53.5467 103.592 54.112V60H102.392V58.288L102.568 58.464C102.419 58.784 102.184 59.0773 101.864 59.344C101.555 59.6 101.187 59.808 100.76 59.968C100.344 60.1173 99.8852 60.192 99.3839 60.192ZM106.06 60V47.888H107.26V60H106.06ZM109.716 60V47.888H110.916V60H109.716ZM120.011 60.192C119.169 60.192 118.427 59.9947 117.787 59.6C117.147 59.2053 116.646 58.672 116.283 58C115.921 57.3173 115.739 56.5493 115.739 55.696C115.739 54.8427 115.921 54.08 116.283 53.408C116.646 52.736 117.147 52.208 117.787 51.824C118.427 51.4293 119.169 51.232 120.011 51.232C120.545 51.232 121.046 51.328 121.515 51.52C121.985 51.712 122.401 51.9733 122.763 52.304C123.126 52.624 123.398 52.9973 123.579 53.424L122.491 53.984C122.278 53.5253 121.953 53.152 121.515 52.864C121.078 52.576 120.577 52.432 120.011 52.432C119.446 52.432 118.934 52.576 118.475 52.864C118.027 53.1413 117.67 53.5307 117.403 54.032C117.147 54.5227 117.019 55.0827 117.019 55.712C117.019 56.3307 117.147 56.8907 117.403 57.392C117.67 57.8827 118.027 58.272 118.475 58.56C118.934 58.848 119.446 58.992 120.011 58.992C120.577 58.992 121.073 58.848 121.499 58.56C121.937 58.272 122.267 57.888 122.491 57.408L123.579 58C123.398 58.416 123.126 58.7893 122.763 59.12C122.401 59.4507 121.985 59.712 121.515 59.904C121.046 60.096 120.545 60.192 120.011 60.192ZM128.009 60.192C127.465 60.192 126.98 60.0907 126.553 59.888C126.126 59.6747 125.79 59.3867 125.545 59.024C125.3 58.6613 125.177 58.2453 125.177 57.776C125.177 57.328 125.273 56.9227 125.465 56.56C125.657 56.1867 125.956 55.872 126.361 55.616C126.766 55.36 127.284 55.1787 127.913 55.072L131.273 54.512V55.6L128.201 56.112C127.582 56.2187 127.134 56.416 126.857 56.704C126.59 56.992 126.457 57.3333 126.457 57.728C126.457 58.112 126.606 58.4373 126.905 58.704C127.214 58.9707 127.609 59.104 128.089 59.104C128.676 59.104 129.188 58.9813 129.625 58.736C130.062 58.48 130.404 58.1387 130.649 57.712C130.894 57.2853 131.017 56.8107 131.017 56.288V54.112C131.017 53.6 130.83 53.184 130.457 52.864C130.084 52.544 129.598 52.384 129.001 52.384C128.478 52.384 128.02 52.5173 127.625 52.784C127.23 53.04 126.937 53.376 126.745 53.792L125.657 53.2C125.817 52.8373 126.068 52.5067 126.409 52.208C126.761 51.9093 127.161 51.6747 127.609 51.504C128.057 51.3227 128.521 51.232 129.001 51.232C129.63 51.232 130.185 51.3547 130.665 51.6C131.156 51.8453 131.534 52.1867 131.801 52.624C132.078 53.0507 132.217 53.5467 132.217 54.112V60H131.017V58.288L131.193 58.464C131.044 58.784 130.809 59.0773 130.489 59.344C130.18 59.6 129.812 59.808 129.385 59.968C128.969 60.1173 128.51 60.192 128.009 60.192ZM134.685 63.2V51.424H135.885V53.344L135.693 53.008C136.034 52.464 136.488 52.032 137.053 51.712C137.629 51.392 138.285 51.232 139.021 51.232C139.832 51.232 140.552 51.4293 141.181 51.824C141.821 52.208 142.322 52.736 142.685 53.408C143.058 54.08 143.245 54.848 143.245 55.712C143.245 56.5653 143.058 57.3333 142.685 58.016C142.322 58.688 141.821 59.2213 141.181 59.616C140.552 60 139.832 60.192 139.021 60.192C138.285 60.192 137.618 60.0267 137.021 59.696C136.434 59.3547 135.992 58.8747 135.693 58.256L135.885 58.08V63.2H134.685ZM138.957 58.992C139.533 58.992 140.045 58.848 140.493 58.56C140.952 58.272 141.309 57.8827 141.565 57.392C141.832 56.8907 141.965 56.3307 141.965 55.712C141.965 55.0827 141.832 54.5227 141.565 54.032C141.309 53.5413 140.952 53.152 140.493 52.864C140.045 52.576 139.533 52.432 138.957 52.432C138.381 52.432 137.858 52.576 137.389 52.864C136.93 53.152 136.562 53.5467 136.285 54.048C136.018 54.5387 135.885 55.0933 135.885 55.712C135.885 56.3307 136.018 56.8907 136.285 57.392C136.562 57.8827 136.93 58.272 137.389 58.56C137.858 58.848 138.381 58.992 138.957 58.992ZM151.052 60.192C150.23 60.192 149.51 59.984 148.892 59.568C148.273 59.152 147.825 58.5867 147.548 57.872L148.556 57.392C148.801 57.9147 149.142 58.3307 149.58 58.64C150.028 58.9493 150.518 59.104 151.052 59.104C151.564 59.104 151.996 58.9813 152.348 58.736C152.7 58.48 152.876 58.1493 152.876 57.744C152.876 57.4453 152.79 57.2107 152.62 57.04C152.449 56.8587 152.252 56.72 152.028 56.624C151.804 56.528 151.606 56.4587 151.436 56.416L150.204 56.064C149.414 55.84 148.844 55.5253 148.492 55.12C148.14 54.7147 147.964 54.2453 147.964 53.712C147.964 53.2107 148.092 52.7733 148.348 52.4C148.604 52.0267 148.95 51.7387 149.388 51.536C149.825 51.3333 150.31 51.232 150.844 51.232C151.569 51.232 152.225 51.424 152.812 51.808C153.409 52.1813 153.83 52.704 154.076 53.376L153.052 53.856C152.838 53.376 152.529 53.0027 152.124 52.736C151.729 52.4587 151.286 52.32 150.796 52.32C150.316 52.32 149.932 52.4427 149.644 52.688C149.356 52.9333 149.212 53.2427 149.212 53.616C149.212 53.904 149.286 54.1333 149.436 54.304C149.585 54.4747 149.756 54.6027 149.948 54.688C150.15 54.7733 150.326 54.8373 150.476 54.88L151.9 55.296C152.593 55.4987 153.132 55.8133 153.516 56.24C153.91 56.6667 154.108 57.168 154.108 57.744C154.108 58.2133 153.974 58.6347 153.708 59.008C153.452 59.3813 153.094 59.6747 152.636 59.888C152.177 60.0907 151.649 60.192 151.052 60.192ZM159.496 60.096C158.728 60.096 158.136 59.872 157.72 59.424C157.304 58.976 157.096 58.336 157.096 57.504V52.624H155.512V51.424H155.912C156.275 51.424 156.563 51.3067 156.776 51.072C156.99 50.8267 157.096 50.5227 157.096 50.16V49.44H158.296V51.424H160.184V52.624H158.296V57.504C158.296 57.792 158.339 58.048 158.424 58.272C158.51 58.4853 158.654 58.656 158.856 58.784C159.07 58.912 159.352 58.976 159.704 58.976C159.79 58.976 159.891 58.9707 160.008 58.96C160.126 58.9493 160.227 58.9387 160.312 58.928V60C160.184 60.032 160.04 60.0533 159.88 60.064C159.72 60.0853 159.592 60.096 159.496 60.096ZM166.123 60.192C165.312 60.192 164.576 60 163.915 59.616C163.254 59.2213 162.726 58.688 162.331 58.016C161.947 57.3333 161.755 56.56 161.755 55.696C161.755 54.8427 161.947 54.08 162.331 53.408C162.715 52.736 163.232 52.208 163.883 51.824C164.544 51.4293 165.291 51.232 166.123 51.232C166.955 51.232 167.696 51.424 168.347 51.808C169.008 52.192 169.526 52.72 169.899 53.392C170.283 54.064 170.475 54.832 170.475 55.696C170.475 56.5707 170.278 57.3493 169.883 58.032C169.488 58.704 168.96 59.232 168.299 59.616C167.648 60 166.923 60.192 166.123 60.192ZM166.123 58.992C166.699 58.992 167.216 58.848 167.675 58.56C168.144 58.272 168.512 57.8773 168.779 57.376C169.056 56.8747 169.195 56.3147 169.195 55.696C169.195 55.0773 169.056 54.5227 168.779 54.032C168.512 53.5413 168.144 53.152 167.675 52.864C167.216 52.576 166.699 52.432 166.123 52.432C165.547 52.432 165.024 52.576 164.555 52.864C164.096 53.152 163.728 53.5413 163.451 54.032C163.174 54.5227 163.035 55.0773 163.035 55.696C163.035 56.3147 163.174 56.8747 163.451 57.376C163.728 57.8773 164.096 58.272 164.555 58.56C165.024 58.848 165.547 58.992 166.123 58.992ZM176.511 60.192C175.669 60.192 174.927 59.9947 174.287 59.6C173.647 59.2053 173.146 58.672 172.783 58C172.421 57.3173 172.239 56.5493 172.239 55.696C172.239 54.8427 172.421 54.08 172.783 53.408C173.146 52.736 173.647 52.208 174.287 51.824C174.927 51.4293 175.669 51.232 176.511 51.232C177.045 51.232 177.546 51.328 178.015 51.52C178.485 51.712 178.901 51.9733 179.263 52.304C179.626 52.624 179.898 52.9973 180.079 53.424L178.991 53.984C178.778 53.5253 178.453 53.152 178.015 52.864C177.578 52.576 177.077 52.432 176.511 52.432C175.946 52.432 175.434 52.576 174.975 52.864C174.527 53.1413 174.17 53.5307 173.903 54.032C173.647 54.5227 173.519 55.0827 173.519 55.712C173.519 56.3307 173.647 56.8907 173.903 57.392C174.17 57.8827 174.527 58.272 174.975 58.56C175.434 58.848 175.946 58.992 176.511 58.992C177.077 58.992 177.573 58.848 177.999 58.56C178.437 58.272 178.767 57.888 178.991 57.408L180.079 58C179.898 58.416 179.626 58.7893 179.263 59.12C178.901 59.4507 178.485 59.712 178.015 59.904C177.546 60.096 177.045 60.192 176.511 60.192ZM182.185 60V47.888H183.385V56.368L182.873 56.288L187.689 51.424H189.241L185.881 54.864L189.545 60H188.105L184.665 55.248L185.433 55.312L182.985 57.84L183.385 56.848V60H182.185ZM193.67 60V51.424H194.87V53.088L194.598 53.024C194.811 52.4693 195.158 52.032 195.638 51.712C196.128 51.392 196.694 51.232 197.334 51.232C197.942 51.232 198.486 51.3707 198.966 51.648C199.456 51.9253 199.84 52.3093 200.118 52.8C200.406 53.28 200.55 53.824 200.55 54.432V60H199.35V54.896C199.35 54.3733 199.254 53.9307 199.062 53.568C198.88 53.2053 198.619 52.928 198.278 52.736C197.947 52.5333 197.563 52.432 197.126 52.432C196.688 52.432 196.299 52.5333 195.958 52.736C195.616 52.928 195.35 53.2107 195.158 53.584C194.966 53.9467 194.87 54.384 194.87 54.896V60H193.67ZM206.745 60.192C205.945 60.192 205.22 60 204.569 59.616C203.929 59.2213 203.423 58.6827 203.049 58C202.676 57.3173 202.489 56.544 202.489 55.68C202.489 54.816 202.671 54.0533 203.033 53.392C203.396 52.72 203.887 52.192 204.505 51.808C205.135 51.424 205.839 51.232 206.617 51.232C207.236 51.232 207.785 51.3493 208.265 51.584C208.756 51.808 209.172 52.1173 209.513 52.512C209.855 52.896 210.116 53.3333 210.297 53.824C210.479 54.304 210.569 54.8 210.569 55.312C210.569 55.4187 210.564 55.5413 210.553 55.68C210.543 55.808 210.527 55.9413 210.505 56.08H203.257V54.96H209.817L209.241 55.44C209.337 54.8533 209.268 54.3307 209.033 53.872C208.809 53.4027 208.484 53.0347 208.057 52.768C207.631 52.4907 207.151 52.352 206.617 52.352C206.084 52.352 205.588 52.4907 205.129 52.768C204.681 53.0453 204.329 53.4347 204.073 53.936C203.817 54.4267 203.716 55.0133 203.769 55.696C203.716 56.3787 203.823 56.976 204.089 57.488C204.367 57.9893 204.74 58.3787 205.209 58.656C205.689 58.9333 206.201 59.072 206.745 59.072C207.375 59.072 207.903 58.9227 208.329 58.624C208.756 58.3253 209.103 57.952 209.369 57.504L210.393 58.048C210.223 58.432 209.961 58.7893 209.609 59.12C209.257 59.44 208.836 59.7013 208.345 59.904C207.865 60.096 207.332 60.192 206.745 60.192ZM214.573 60L211.629 51.424H212.989L215.421 58.928H214.941L217.229 51.424H218.429L220.717 58.928H220.237L222.685 51.424H224.029L221.085 60H219.885L217.661 52.656H217.997L215.773 60H214.573ZM228.411 60.192C227.59 60.192 226.87 59.984 226.251 59.568C225.632 59.152 225.184 58.5867 224.907 57.872L225.915 57.392C226.16 57.9147 226.502 58.3307 226.939 58.64C227.387 58.9493 227.878 59.104 228.411 59.104C228.923 59.104 229.355 58.9813 229.707 58.736C230.059 58.48 230.235 58.1493 230.235 57.744C230.235 57.4453 230.15 57.2107 229.979 57.04C229.808 56.8587 229.611 56.72 229.387 56.624C229.163 56.528 228.966 56.4587 228.795 56.416L227.563 56.064C226.774 55.84 226.203 55.5253 225.851 55.12C225.499 54.7147 225.323 54.2453 225.323 53.712C225.323 53.2107 225.451 52.7733 225.707 52.4C225.963 52.0267 226.31 51.7387 226.747 51.536C227.184 51.3333 227.67 51.232 228.203 51.232C228.928 51.232 229.584 51.424 230.171 51.808C230.768 52.1813 231.19 52.704 231.435 53.376L230.411 53.856C230.198 53.376 229.888 53.0027 229.483 52.736C229.088 52.4587 228.646 52.32 228.155 52.32C227.675 52.32 227.291 52.4427 227.003 52.688C226.715 52.9333 226.571 53.2427 226.571 53.616C226.571 53.904 226.646 54.1333 226.795 54.304C226.944 54.4747 227.115 54.6027 227.307 54.688C227.51 54.7733 227.686 54.8373 227.835 54.88L229.259 55.296C229.952 55.4987 230.491 55.8133 230.875 56.24C231.27 56.6667 231.467 57.168 231.467 57.744C231.467 58.2133 231.334 58.6347 231.067 59.008C230.811 59.3813 230.454 59.6747 229.995 59.888C229.536 60.0907 229.008 60.192 228.411 60.192Z" fill="white"/>
<path d="M228.198 41.1727C226.198 41.1727 224.461 40.8393 222.986 40.1724C221.512 39.5056 220.372 38.5579 219.564 37.3295C218.757 36.066 218.354 34.6095 218.354 32.9599C218.354 31.3805 218.704 29.9766 219.406 28.7482C220.108 27.4846 221.196 26.4317 222.671 25.5894C224.145 24.747 226.005 24.1504 228.251 23.7994L237.622 22.2726V27.5373L229.567 28.9061C228.198 29.1518 227.181 29.5905 226.514 30.2223C225.847 30.854 225.513 31.6788 225.513 32.6966C225.513 33.6794 225.882 34.4691 226.619 35.0657C227.391 35.6273 228.339 35.9081 229.462 35.9081C230.901 35.9081 232.164 35.6097 233.252 35.0131C234.376 34.3813 235.235 33.5214 235.832 32.4334C236.464 31.3454 236.78 30.1521 236.78 28.8534V21.4829C236.78 20.2545 236.288 19.2367 235.306 18.4295C234.358 17.5871 233.095 17.1659 231.515 17.1659C230.041 17.1659 228.725 17.5696 227.567 18.3768C226.444 19.149 225.619 20.1843 225.092 21.4829L219.459 18.7453C220.021 17.2361 220.898 15.9375 222.091 14.8495C223.32 13.7264 224.759 12.8489 226.408 12.2172C228.058 11.5854 229.848 11.2695 231.778 11.2695C234.13 11.2695 236.201 11.7083 237.991 12.5857C239.781 13.428 241.167 14.6214 242.15 16.1657C243.168 17.6749 243.676 19.4473 243.676 21.4829V40.541H237.148V35.6448L238.622 35.5395C237.885 36.768 237.008 37.8033 235.99 38.6457C234.972 39.4529 233.814 40.0847 232.515 40.541C231.217 40.9621 229.778 41.1727 228.198 41.1727Z" fill="white"/>
<path d="M199.822 40.5415V11.9018H206.297V18.272L205.771 17.3244C206.438 15.1834 207.473 13.6918 208.877 12.8495C210.316 12.0071 212.036 11.5859 214.036 11.5859H215.721V17.6929H213.247C211.281 17.6929 209.702 18.3071 208.508 19.5356C207.315 20.7289 206.718 22.4136 206.718 24.5896V40.5415H199.822Z" fill="white"/>
<path d="M181.169 41.1727C178.221 41.1727 175.641 40.5059 173.43 39.1722C171.219 37.8384 169.499 36.0309 168.271 33.7496C167.042 31.4682 166.428 28.9412 166.428 26.1685C166.428 23.2905 167.042 20.7459 168.271 18.5347C169.534 16.2885 171.237 14.5161 173.378 13.2174C175.554 11.9188 177.975 11.2695 180.643 11.2695C182.889 11.2695 184.854 11.6381 186.539 12.3751C188.259 13.1122 189.716 14.13 190.909 15.4286C192.102 16.7272 193.015 18.2189 193.646 19.9036C194.278 21.5531 194.594 23.3431 194.594 25.2735C194.594 25.7649 194.559 26.2738 194.489 26.8002C194.454 27.3267 194.366 27.783 194.226 28.169H172.114V22.9044H190.33L187.066 25.3788C187.382 23.7643 187.294 22.3253 186.802 21.0618C186.346 19.7983 185.574 18.798 184.486 18.0609C183.433 17.3239 182.152 16.9554 180.643 16.9554C179.204 16.9554 177.923 17.3239 176.8 18.0609C175.676 18.7629 174.817 19.8158 174.22 21.2197C173.658 22.5885 173.448 24.2557 173.588 26.2211C173.448 27.976 173.676 29.5379 174.273 30.9067C174.904 32.2404 175.817 33.2758 177.01 34.0128C178.239 34.7499 179.642 35.1184 181.222 35.1184C182.801 35.1184 184.135 34.785 185.223 34.1181C186.346 33.4512 187.224 32.5563 187.855 31.4331L193.436 34.1707C192.874 35.5396 191.997 36.7504 190.804 37.8033C189.61 38.8563 188.189 39.6811 186.539 40.2777C184.925 40.8744 183.135 41.1727 181.169 41.1727Z" fill="white"/>
<path d="M146.915 40.542L135.648 11.9023H143.177L151.337 34.435H148.547L156.76 11.9023H164.288L153.022 40.542H146.915Z" fill="white"/>
<path d="M107.586 40.541V11.9013H114.062V17.5345L113.535 16.5342C114.202 14.8144 115.29 13.5158 116.8 12.6383C118.344 11.7258 120.134 11.2695 122.169 11.2695C124.275 11.2695 126.136 11.7258 127.75 12.6383C129.4 13.5509 130.681 14.8319 131.593 16.4815C132.506 18.096 132.962 19.9737 132.962 22.1147V40.541H126.065V23.7467C126.065 22.4832 125.82 21.3952 125.328 20.4827C124.837 19.5701 124.153 18.8682 123.275 18.3768C122.433 17.8503 121.432 17.5871 120.274 17.5871C119.151 17.5871 118.151 17.8503 117.273 18.3768C116.396 18.8682 115.712 19.5701 115.22 20.4827C114.729 21.3952 114.483 22.4832 114.483 23.7467V40.541H107.586Z" fill="white"/>
<path d="M78.0506 40.5409V18.0608H72.9966V11.9012H78.0506V10.9536C78.0506 8.77751 78.4894 6.93488 79.3668 5.42568C80.2793 3.88139 81.5429 2.70562 83.1573 1.89837C84.7718 1.09112 86.6847 0.6875 88.8958 0.6875C89.317 0.6875 89.7733 0.722598 90.2646 0.792792C90.7911 0.827892 91.2298 0.880538 91.5808 0.950733V6.89978C91.2298 6.82959 90.8964 6.79449 90.5805 6.79449C90.2997 6.75939 90.0365 6.74184 89.7908 6.74184C88.2465 6.74184 87.0532 7.09282 86.2108 7.79477C85.3685 8.46163 84.9473 9.51455 84.9473 10.9536V11.9012H97.4772V18.0608H84.9473V40.5409H78.0506ZM94.8975 40.5409V11.9012H101.847V40.5409H94.8975Z" fill="white"/>
<path fill-rule="evenodd" clip-rule="evenodd" d="M58.7935 12.2622C60.1035 14.0752 59.6958 16.6069 57.8828 17.9169L8.02652 53.942C6.21353 55.252 3.68181 54.8443 2.37178 53.0313C1.06175 51.2183 1.46949 48.6866 3.28248 47.3765L53.1388 11.3515C54.9518 10.0415 57.4835 10.4492 58.7935 12.2622Z" fill="#94CAFF"/>
<path d="M26.4944 48.4375C17.9823 46.1566 12.9309 37.4073 15.2117 28.8952C17.4925 20.3831 26.2419 15.3316 34.754 17.6124C43.2661 19.8932 48.3175 28.6426 46.0367 37.1547C43.7559 45.6668 35.0065 50.7183 26.4944 48.4375Z" fill="#0048B4"/>
<path d="M24.4922 55.9154C11.85 52.5279 4.34761 39.5333 7.73506 26.8912C11.1225 14.249 24.1171 6.74659 36.7592 10.134C49.4014 13.5215 56.9038 26.5161 53.5164 39.1582C50.1289 51.8004 37.1343 59.3028 24.4922 55.9154ZM34.7096 17.7835C26.2921 15.528 17.64 20.5234 15.3845 28.9408C13.1291 37.3583 18.1244 46.0104 26.5418 48.2659C34.9593 50.5214 43.6115 45.526 45.8669 37.1086C48.1224 28.6911 43.1271 20.039 34.7096 17.7835Z" fill="white"/>
<path d="M28.038 42.6778C22.7052 41.2489 19.5404 35.7673 20.9694 30.4345C22.3983 25.1016 27.8798 21.9369 33.2127 23.3658C38.5455 24.7947 41.7103 30.2763 40.2813 35.6091C38.8524 40.942 33.3709 44.1067 28.038 42.6778Z" fill="#65B2FF"/>
</svg>
