<svg width="59" height="59" viewBox="0 0 59 59" fill="none" xmlns="http://www.w3.org/2000/svg">
<path fill-rule="evenodd" clip-rule="evenodd" d="M56.8831 13.917C58.6961 12.607 59.1039 10.0753 57.7938 8.26229C56.4838 6.44929 53.9521 6.04156 52.1391 7.35159L39.4983 16.4855C41.6663 18.1943 43.3413 20.4321 44.3804 22.9512L56.8831 13.917ZM19.2227 41.1296C17.1355 39.3334 15.5539 37.0277 14.6214 34.461L2.2828 43.3766C0.469802 44.6866 0.0620651 47.2184 1.3721 49.0314C2.68213 50.8443 5.21384 51.2521 7.02684 49.9421L19.2227 41.1296Z" fill="#94CAFF"/>
<path d="M23.4922 51.9154C10.85 48.5279 3.3476 35.5333 6.73506 22.8912C10.1225 10.249 23.1171 2.74659 35.7592 6.13405C48.4014 9.5215 55.9038 22.5161 52.5164 35.1582C49.1289 47.8004 36.1343 55.3028 23.4922 51.9154ZM33.7096 13.7835C25.2921 11.528 16.64 16.5234 14.3845 24.9408C12.1291 33.3583 17.1244 42.0104 25.5418 44.2659C33.9593 46.5214 42.6115 41.526 44.8669 33.1086C47.1224 24.6911 42.1271 16.039 33.7096 13.7835Z" fill="white"/>
<path d="M27.0385 38.6778C21.7057 37.2489 18.5409 31.7673 19.9698 26.4345C21.3988 21.1016 26.8803 17.9369 32.2131 19.3658C37.546 20.7947 40.7108 26.2763 39.2818 31.6091C37.8529 36.942 32.3714 40.1067 27.0385 38.6778Z" fill="#65B2FF"/>
</svg>
