<svg width="101" height="25" viewBox="0 0 101 25" fill="none" xmlns="http://www.w3.org/2000/svg">
<path d="M98.539 21.7137L100.549 22.3438V24.4742L95.2984 24.7443L94.7883 22.2238C94.0481 23.0839 93.218 23.7441 92.2978 24.2042C91.3976 24.6442 90.4674 24.8643 89.5073 24.8643C88.187 24.8643 87.1168 24.4442 86.2966 23.604C85.4765 22.7639 85.0664 21.5937 85.0664 20.0934C85.0664 18.4531 85.5865 17.2728 86.6267 16.5527C87.6869 15.8326 89.2672 15.4725 91.3676 15.4725H94.3382V13.8222C94.3382 12.922 94.1181 12.2619 93.678 11.8418C93.238 11.4217 92.5778 11.2117 91.6977 11.2117C90.9375 11.2117 90.0874 11.3317 89.1472 11.5718L88.8171 13.6721H86.2066L85.9666 9.29132C88.6671 8.51117 90.9475 8.12109 92.8079 8.12109C94.7082 8.12109 96.1385 8.52117 97.0987 9.32132C98.0589 10.1215 98.539 11.3617 98.539 13.042V21.7137ZM89.2972 19.6733C89.2972 20.3934 89.4672 20.9335 89.8073 21.2936C90.1474 21.6537 90.5975 21.8337 91.1576 21.8337C91.6377 21.8337 92.1478 21.6937 92.6879 21.4136C93.248 21.1336 93.7981 20.7535 94.3382 20.2734V17.6929H92.0577C91.0375 17.6929 90.3174 17.8529 89.8973 18.173C89.4972 18.4731 89.2972 18.9732 89.2972 19.6733Z" fill="white"/>
<path d="M82.4747 8.12109C83.0948 8.12109 83.7749 8.22111 84.5151 8.42115L84.275 13.8822H81.8146L81.4545 11.4517C81.3745 11.4317 81.2244 11.4217 81.0044 11.4217C80.4843 11.4217 79.9442 11.5718 79.3841 11.8718C78.844 12.1719 78.3539 12.5719 77.9138 13.072V21.7737L80.4043 22.3438V24.5042H71.7026V22.3438L73.713 21.7737V11.3317L71.7026 10.7316V8.57118L76.9836 8.33113L77.4037 10.6116C78.2639 9.77141 79.094 9.15129 79.8942 8.75121C80.7144 8.33113 81.5745 8.12109 82.4747 8.12109Z" fill="white"/>
<path d="M63.6094 21.7437C65.0497 21.7437 66.61 21.2436 68.2903 20.2434L69.7006 22.4938C67.3802 24.0741 65.0197 24.8643 62.6192 24.8643C60.3788 24.8643 58.5985 24.1641 57.2782 22.7639C55.958 21.3636 55.2979 19.3732 55.2979 16.7927C55.2979 15.0124 55.6179 13.4721 56.258 12.1719C56.8982 10.8716 57.8083 9.87143 58.9886 9.17129C60.1888 8.47116 61.589 8.12109 63.1894 8.12109C65.4098 8.12109 67.0701 8.77122 68.1703 10.0715C69.2905 11.3517 69.8506 13.062 69.8506 15.2024C69.8506 15.8226 69.7906 16.5227 69.6706 17.3028H59.6787C59.7987 18.6831 60.1788 19.7733 60.8189 20.5735C61.459 21.3536 62.3892 21.7437 63.6094 21.7437ZM62.8593 11.1517C61.9391 11.1517 61.219 11.4817 60.6989 12.1419C60.1788 12.782 59.8487 13.6722 59.7087 14.8124H65.5298C65.4898 12.3719 64.5996 11.1517 62.8593 11.1517Z" fill="white"/>
<path d="M48.1442 8.59942L54.9255 8.35938V10.4898L53.6352 11.0599L48.8343 24.5625H43.9134L39.6826 11.1199L38.3623 10.7598V8.59942L45.7137 8.35938V10.4898L43.9434 11.0299L46.7339 21.3218L49.8545 11.1199L48.1442 10.7598V8.59942Z" fill="white"/>
<path d="M37.04 21.7437L39.0504 22.3438V24.5042H31.0389V22.3438L32.8392 21.8337V14.1522C32.8392 13.2121 32.6292 12.5019 32.2091 12.0218C31.789 11.5417 31.2189 11.3017 30.4988 11.3017C29.9787 11.3017 29.4186 11.4417 28.8185 11.7218C28.2384 11.9818 27.6683 12.3619 27.1082 12.862V21.8037L28.9085 22.3438V24.5042H20.897V22.3438L22.9074 21.7737V11.3317L20.897 10.7316V8.57118L26.178 8.33113L26.5981 10.6116C27.4982 9.79141 28.4484 9.17129 29.4486 8.75121C30.4488 8.33113 31.409 8.12109 32.3292 8.12109C33.7494 8.12109 34.8896 8.56118 35.7498 9.44134C36.63 10.3215 37.0601 11.5918 37.04 13.2521V21.7437Z" fill="white"/>
<path d="M17.5481 8.35904V21.7716L19.5585 22.3417V24.5021H11.3369V22.3417L13.3473 21.7716V11.2996L11.3369 10.7295V8.56908L17.5481 8.35904ZM15.3277 6.01859C14.5875 6.01859 13.9874 5.80855 13.5273 5.38847C13.0872 4.94839 12.8672 4.34827 12.8672 3.58813C12.8672 2.78798 13.0972 2.17786 13.5573 1.75778C14.0174 1.3177 14.6175 1.09766 15.3577 1.09766C16.0978 1.09766 16.6879 1.3077 17.128 1.72778C17.5681 2.14786 17.7881 2.75797 17.7881 3.55813C17.7881 4.33827 17.5581 4.94839 17.098 5.38847C16.6579 5.80855 16.0678 6.01859 15.3277 6.01859Z" fill="white"/>
<path d="M8.76167 3.91854C7.94151 3.91854 7.32139 4.15858 6.90131 4.63868C6.50124 5.09876 6.3012 5.8389 6.3012 6.8591V8.62944H10.1419L10.0519 11.42H6.3012V21.7419L8.70166 22.342V24.5025H0.0900172V22.342L2.1004 21.7719V11.42H0V9.16954L2.1004 8.62944V7.21917C2.1004 5.15878 2.6405 3.59848 3.72071 2.53828C4.82092 1.45807 6.3012 0.917969 8.16155 0.917969C9.02172 0.917969 9.92189 1.03799 10.8621 1.27804L10.322 4.12858C9.62183 3.98855 9.10173 3.91854 8.76167 3.91854Z" fill="white"/>
</svg>
