<svg width="62" height="59" viewBox="0 0 62 59" fill="none" xmlns="http://www.w3.org/2000/svg">
<path fill-rule="evenodd" clip-rule="evenodd" d="M58.7935 8.2622C60.1035 10.0752 59.6958 12.6069 57.8828 13.9169L8.02652 49.942C6.21353 51.252 3.68181 50.8443 2.37178 49.0313C1.06175 47.2183 1.46949 44.6865 3.28248 43.3765L53.1388 7.3515C54.9518 6.04147 57.4835 6.4492 58.7935 8.2622Z" fill="#94CAFF"/>
<path d="M26.4944 44.4375C17.9823 42.1566 12.9309 33.4073 15.2117 24.8952C17.4925 16.3831 26.2419 11.3316 34.754 13.6124C43.2661 15.8932 48.3175 24.6426 46.0367 33.1547C43.7559 41.6668 35.0065 46.7183 26.4944 44.4375Z" fill="#0048B4"/>
<path d="M24.4922 51.9154C11.85 48.5279 4.3476 35.5333 7.73506 22.8912C11.1225 10.249 24.1171 2.74659 36.7592 6.13405C49.4014 9.5215 56.9038 22.5161 53.5164 35.1582C50.1289 47.8004 37.1343 55.3028 24.4922 51.9154ZM34.7096 13.7835C26.2921 11.528 17.64 16.5234 15.3845 24.9408C13.1291 33.3583 18.1244 42.0104 26.5418 44.2659C34.9593 46.5214 43.6115 41.526 45.8669 33.1086C48.1224 24.6911 43.1271 16.039 34.7096 13.7835Z" fill="white"/>
<path d="M28.038 38.6778C22.7052 37.2489 19.5404 31.7673 20.9694 26.4345C22.3983 21.1016 27.8798 17.9369 33.2127 19.3658C38.5455 20.7947 41.7103 26.2763 40.2813 31.6091C38.8524 36.942 33.3709 40.1067 28.038 38.6778Z" fill="#65B2FF"/>
</svg>
