<svg width="116" height="30" viewBox="0 0 116 30" fill="none" xmlns="http://www.w3.org/2000/svg">
<path d="M113.646 21.1154L115.25 21.618V23.3173L111.061 23.5327L110.654 21.5223C110.064 22.2084 109.402 22.7349 108.668 23.1019C107.95 23.453 107.208 23.6285 106.442 23.6285C105.389 23.6285 104.535 23.2934 103.881 22.6233C103.227 21.9531 102.9 21.0197 102.9 19.823C102.9 18.5146 103.315 17.5732 104.144 16.9988C104.99 16.4244 106.251 16.1372 107.926 16.1372H110.295V14.8209C110.295 14.1028 110.12 13.5763 109.769 13.2412C109.418 12.9061 108.891 12.7386 108.189 12.7386C107.583 12.7386 106.905 12.8344 106.155 13.0258L105.892 14.7012H103.809L103.618 11.2069C105.772 10.5846 107.591 10.2734 109.075 10.2734C110.591 10.2734 111.731 10.5926 112.497 11.2308C113.263 11.869 113.646 12.8583 113.646 14.1986V21.1154ZM106.275 19.4879C106.275 20.0623 106.41 20.4932 106.681 20.7804C106.953 21.0676 107.312 21.2112 107.758 21.2112C108.141 21.2112 108.548 21.0995 108.979 20.8761C109.426 20.6527 109.865 20.3495 110.295 19.9666V17.9083H108.476C107.663 17.9083 107.088 18.036 106.753 18.2912C106.434 18.5306 106.275 18.9295 106.275 19.4879Z" fill="white"/>
<path d="M100.833 10.2734C101.328 10.2734 101.87 10.3532 102.46 10.5128L102.269 14.8687H100.306L100.019 12.9301C99.9554 12.9141 99.8357 12.9062 99.6602 12.9062C99.2453 12.9062 98.8145 13.0258 98.3678 13.2652C97.937 13.5045 97.546 13.8236 97.195 14.2225V21.1633L99.1815 21.618V23.3413H92.2407V21.618L93.8443 21.1633V12.8343L92.2407 12.3557V10.6324L96.4531 10.441L96.7881 12.2599C97.4742 11.5898 98.1364 11.0952 98.7746 10.776C99.4288 10.441 100.115 10.2734 100.833 10.2734Z" fill="white"/>
<path d="M85.7844 21.1394C86.9333 21.1394 88.1778 20.7405 89.5181 19.9427L90.643 21.7377C88.7921 22.9982 86.9093 23.6285 84.9946 23.6285C83.2076 23.6285 81.7875 23.07 80.7344 21.9531C79.6813 20.8362 79.1548 19.2486 79.1548 17.1903C79.1548 15.7702 79.4101 14.5416 79.9207 13.5045C80.4313 12.4674 81.1572 11.6696 82.0986 11.1111C83.056 10.5527 84.1729 10.2734 85.4494 10.2734C87.2205 10.2734 88.5448 10.792 89.4224 11.8291C90.3159 12.8503 90.7627 14.2145 90.7627 15.9218C90.7627 16.4164 90.7148 16.9749 90.6191 17.5972H82.6491C82.7449 18.6981 83.048 19.5677 83.5586 20.2059C84.0692 20.8282 84.8111 21.1394 85.7844 21.1394ZM85.1861 12.6907C84.4521 12.6907 83.8777 12.954 83.4629 13.4806C83.048 13.9911 82.7847 14.7012 82.673 15.6107H87.3162C87.2843 13.6641 86.5743 12.6907 85.1861 12.6907Z" fill="white"/>
<path d="M73.4489 10.6524L78.8579 10.4609V12.1602L77.8288 12.615L73.9994 23.3852H70.0742L66.6996 12.6628L65.6465 12.3756V10.6524L71.5103 10.4609V12.1602L70.0982 12.591L72.324 20.8003L74.8131 12.6628L73.4489 12.3756V10.6524Z" fill="white"/>
<path d="M64.5922 21.1394L66.1957 21.618V23.3413H59.8054V21.618L61.2415 21.2112V15.0841C61.2415 14.3342 61.0739 13.7678 60.7388 13.3848C60.4038 13.0019 59.949 12.8104 59.3746 12.8104C58.9598 12.8104 58.513 12.9221 58.0343 13.1455C57.5716 13.3529 57.1169 13.6561 56.6701 14.055V21.1872L58.1061 21.618V23.3413H51.7158V21.618L53.3194 21.1633V12.8343L51.7158 12.3557V10.6324L55.9282 10.441L56.2632 12.2599C56.9812 11.6057 57.7392 11.1111 58.5369 10.776C59.3347 10.441 60.1006 10.2734 60.8346 10.2734C61.9674 10.2734 62.8769 10.6245 63.563 11.3265C64.2651 12.0286 64.6081 13.0418 64.5922 14.3661V21.1394Z" fill="white"/>
<path d="M49.0446 10.4599V21.1583L50.6482 21.6131V23.3363H44.0903V21.6131L45.6939 21.1583V12.8054L44.0903 12.3507V10.6275L49.0446 10.4599ZM47.2735 8.59311C46.6832 8.59311 46.2045 8.42557 45.8375 8.0905C45.4865 7.73947 45.311 7.26079 45.311 6.65447C45.311 6.01624 45.4944 5.52958 45.8614 5.19451C46.2284 4.84348 46.7071 4.66797 47.2975 4.66797C47.8878 4.66797 48.3585 4.8355 48.7095 5.17058C49.0606 5.50565 49.2361 5.9923 49.2361 6.63054C49.2361 7.25282 49.0526 7.73947 48.6856 8.0905C48.3346 8.42557 47.8639 8.59311 47.2735 8.59311Z" fill="white"/>
<path d="M42.036 6.92072C41.3818 6.92072 40.8872 7.11219 40.5521 7.49513C40.233 7.86211 40.0735 8.45248 40.0735 9.26623V10.6783H43.137L43.0652 12.9042H40.0735V21.1374L41.9882 21.616V23.3393H35.1192V21.616L36.7227 21.1613V12.9042H35.0474V11.1091L36.7227 10.6783V9.55343C36.7227 7.90998 37.1535 6.66543 38.0151 5.81977C38.8927 4.95815 40.0735 4.52734 41.5573 4.52734C42.2434 4.52734 42.9615 4.62308 43.7114 4.81455L43.2806 7.08826C42.7221 6.97656 42.3073 6.92072 42.036 6.92072Z" fill="white"/>
<path opacity="0.8" fill-rule="evenodd" clip-rule="evenodd" d="M29.1906 3.72465C30.0206 4.81302 29.9747 6.24333 29.0882 6.91935L4.70921 25.5094C3.82268 26.1854 2.43122 25.8511 1.60129 24.7627C0.771361 23.6744 0.817244 22.244 1.70377 21.568L26.0827 2.97801C26.9692 2.302 28.3607 2.63628 29.1906 3.72465Z" fill="#94CAFF"/>
<path d="M13.1761 22.2525C8.91305 21.1102 6.38315 16.7283 7.52544 12.4652C8.66773 8.20213 13.0497 5.67222 17.3127 6.81451C21.5758 7.9568 24.1057 12.3387 22.9634 16.6018C21.8211 20.8649 17.4392 23.3948 13.1761 22.2525Z" fill="#1E1E1E"/>
<path d="M12.1738 26.0012C5.84229 24.3047 2.08487 17.7966 3.7814 11.4651C5.47793 5.13358 11.986 1.37617 18.3175 3.0727C24.649 4.76922 28.4064 11.2773 26.7099 17.6088C25.0134 23.9403 18.5053 27.6977 12.1738 26.0012ZM17.291 6.90375C13.0753 5.77415 8.74205 8.27594 7.61245 12.4916C6.48286 16.7073 8.98464 21.0406 13.2003 22.1701C17.416 23.2997 21.7493 20.798 22.8789 16.5823C24.0084 12.3666 21.5067 8.03334 17.291 6.90375Z" fill="#005BE3"/>
<path opacity="0.9" d="M13.9494 19.3723C11.2785 18.6566 9.69355 15.9113 10.4092 13.2405C11.1248 10.5696 13.8701 8.98465 16.541 9.7003C19.2118 10.4159 20.7968 13.1612 20.0812 15.8321C19.3655 18.5029 16.6202 20.0879 13.9494 19.3723Z" fill="white"/>
</svg>
