<svg width="130" height="28" viewBox="0 0 130 28" fill="none" xmlns="http://www.w3.org/2000/svg">
<path d="M121.296 23.2069C120.248 23.2069 119.338 23.0322 118.566 22.6829C117.794 22.3336 117.196 21.8372 116.774 21.1937C116.351 20.5319 116.139 19.7689 116.139 18.9048C116.139 18.0775 116.323 17.3421 116.691 16.6986C117.059 16.0368 117.628 15.4852 118.401 15.044C119.173 14.6027 120.147 14.2902 121.324 14.1064L126.233 13.3066V16.0643L122.013 16.7814C121.296 16.91 120.763 17.1399 120.414 17.4708C120.064 17.8017 119.89 18.2338 119.89 18.7669C119.89 19.2817 120.083 19.6953 120.469 20.0079C120.873 20.302 121.37 20.4491 121.958 20.4491C122.712 20.4491 123.374 20.2929 123.944 19.9803C124.532 19.6494 124.982 19.199 125.295 18.629C125.626 18.0591 125.791 17.434 125.791 16.7538V12.893C125.791 12.2495 125.534 11.7163 125.019 11.2935C124.523 10.8522 123.861 10.6316 123.034 10.6316C122.261 10.6316 121.572 10.843 120.965 11.2659C120.377 11.6704 119.945 12.2127 119.669 12.893L116.718 11.4589C117.013 10.6684 117.472 9.98815 118.097 9.41822C118.741 8.82991 119.495 8.37029 120.359 8.03936C121.223 7.70843 122.16 7.54297 123.171 7.54297C124.403 7.54297 125.488 7.77278 126.426 8.2324C127.363 8.67364 128.089 9.29872 128.604 10.1077C129.137 10.8982 129.404 11.8266 129.404 12.893V22.8759H125.984V20.3112L126.757 20.2561C126.37 20.8996 125.911 21.4419 125.378 21.8831C124.845 22.306 124.238 22.6369 123.558 22.8759C122.877 23.0965 122.124 23.2069 121.296 23.2069Z" fill="white"/>
<path d="M106.432 22.8765V7.87445H109.824V11.2113L109.548 10.7149C109.898 9.59343 110.44 8.81207 111.175 8.37084C111.929 7.9296 112.83 7.70898 113.878 7.70898H114.76V10.9079H113.464C112.435 10.9079 111.607 11.2297 110.982 11.8732C110.357 12.4982 110.045 13.3807 110.045 14.5206V22.8765H106.432Z" fill="white"/>
<path d="M96.6616 23.2069C95.1172 23.2069 93.766 22.8575 92.6077 22.1589C91.4495 21.4603 90.5486 20.5135 89.9051 19.3185C89.2617 18.1234 88.9399 16.7997 88.9399 15.3473C88.9399 13.8398 89.2617 12.5069 89.9051 11.3486C90.567 10.172 91.4587 9.24357 92.5801 8.56333C93.72 7.88309 94.9886 7.54297 96.3858 7.54297C97.5624 7.54297 98.592 7.73601 99.4745 8.12209C100.375 8.50817 101.138 9.04133 101.763 9.72157C102.388 10.4018 102.866 11.1832 103.197 12.0656C103.528 12.9297 103.694 13.8674 103.694 14.8785C103.694 15.1359 103.675 15.4025 103.639 15.6783C103.62 15.954 103.574 16.193 103.501 16.3953H91.9183V13.6375H101.46L99.7502 14.9337C99.9157 14.088 99.8697 13.3342 99.6123 12.6723C99.3733 12.0105 98.9689 11.4865 98.3989 11.1004C97.8474 10.7144 97.1763 10.5213 96.3858 10.5213C95.632 10.5213 94.961 10.7144 94.3727 11.1004C93.7843 11.4681 93.3339 12.0197 93.0214 12.7551C92.7272 13.4721 92.6169 14.3454 92.6904 15.3749C92.6169 16.2942 92.7364 17.1123 93.049 17.8293C93.3799 18.5279 93.8579 19.0703 94.483 19.4563C95.1264 19.8424 95.8618 20.0355 96.6892 20.0355C97.5165 20.0355 98.2151 19.8608 98.785 19.5115C99.3733 19.1622 99.833 18.6934 100.164 18.1051L103.087 19.5391C102.793 20.2561 102.333 20.8904 101.708 21.4419C101.083 21.9935 100.339 22.4255 99.4745 22.738C98.6288 23.0506 97.6911 23.2069 96.6616 23.2069Z" fill="white"/>
<path d="M78.7184 22.877L72.8169 7.875H76.7604L81.0349 19.6781H79.5733L83.8754 7.875H87.8189L81.9174 22.877H78.7184Z" fill="white"/>
<path d="M58.1174 22.8759V7.8739H61.5094V10.8247L61.2337 10.3007C61.583 9.39984 62.1529 8.7196 62.9435 8.25998C63.7524 7.78197 64.69 7.54297 65.7563 7.54297C66.8594 7.54297 67.8338 7.78197 68.6795 8.25998C69.5436 8.73798 70.2147 9.40903 70.6927 10.2731C71.1707 11.1188 71.4097 12.1024 71.4097 13.2239V22.8759H67.797V14.0788C67.797 13.4169 67.6684 12.847 67.411 12.369C67.1536 11.891 66.7951 11.5233 66.3355 11.2659C65.8942 10.9901 65.3703 10.8522 64.7636 10.8522C64.1752 10.8522 63.6513 10.9901 63.1916 11.2659C62.732 11.5233 62.3735 11.891 62.1161 12.369C61.8587 12.847 61.7301 13.4169 61.7301 14.0788V22.8759H58.1174Z" fill="white"/>
<path d="M42.646 22.876V11.1005H39.9985V7.87396H42.646V7.37756C42.646 6.23771 42.8758 5.2725 43.3354 4.48195C43.8134 3.67302 44.4752 3.05713 45.3209 2.63428C46.1666 2.21143 47.1686 2 48.3269 2C48.5475 2 48.7865 2.01839 49.0439 2.05515C49.3196 2.07354 49.5495 2.10112 49.7333 2.13789V5.25412C49.5495 5.21735 49.3748 5.19896 49.2093 5.19896C49.0623 5.18058 48.9244 5.17139 48.7957 5.17139C47.9867 5.17139 47.3617 5.35523 46.9204 5.72293C46.4792 6.07224 46.2586 6.62379 46.2586 7.37756V7.87396H52.822V11.1005H46.2586V22.876H42.646ZM51.4707 22.876V7.87396H55.1109V22.876H51.4707Z" fill="white"/>
<path fill-rule="evenodd" clip-rule="evenodd" d="M32.1296 5.23504C33.1626 4.48858 33.3949 3.046 32.6485 2.01295C31.902 0.979893 30.4594 0.747564 29.4264 1.49402L22.2237 6.69855C23.459 7.6722 24.4134 8.94733 25.0055 10.3827L32.1296 5.23504ZM10.6705 20.7408C9.48123 19.7173 8.58003 18.4035 8.0487 16.9411L1.01807 22.0212C-0.0149807 22.7677 -0.247311 24.2103 0.49915 25.2433C1.24561 26.2764 2.68819 26.5087 3.72124 25.7622L10.6705 20.7408Z" fill="#94CAFF"/>
<path d="M16.598 27.3484C9.14035 27.3484 3.09471 21.3028 3.09472 13.8451C3.09472 6.38743 9.14035 0.341796 16.598 0.341796C24.0557 0.341797 30.1013 6.38743 30.1013 13.8451C30.1013 21.3028 24.0557 27.3484 16.598 27.3484ZM16.598 4.85424C11.6325 4.85424 7.60716 8.87959 7.60716 13.8451C7.60716 18.8106 11.6325 22.836 16.598 22.836C21.5635 22.836 25.5889 18.8106 25.5889 13.8451C25.5889 8.87959 21.5635 4.85424 16.598 4.85424Z" fill="#005BE3"/>
<path d="M15.1239 19.3462C12.0852 18.532 10.2819 15.4086 11.0962 12.3699C11.9104 9.33122 15.0338 7.52793 18.0724 8.34214C21.1111 9.15636 22.9144 12.2797 22.1002 15.3184C21.286 18.3571 18.1626 20.1604 15.1239 19.3462Z" fill="white"/>
</svg>
