<svg width="653" height="534" viewBox="0 0 653 534" fill="none" xmlns="http://www.w3.org/2000/svg">
<g opacity="0.07">
<path opacity="0.78" d="M327.204 533.62C179.868 533.62 60.4291 414.181 60.4291 266.845C60.4291 119.509 179.868 0.0702944 327.204 0.0703008C474.539 0.0703073 593.979 119.509 593.979 266.845C593.978 414.181 474.539 533.62 327.204 533.62ZM327.204 89.2194C229.104 89.2194 149.578 168.745 149.578 266.845C149.578 364.945 229.104 444.471 327.204 444.471C425.304 444.471 504.829 364.945 504.829 266.845C504.829 168.745 425.304 89.2194 327.204 89.2194Z" fill="#005BE3"/>
<path fill-rule="evenodd" clip-rule="evenodd" d="M634.045 96.8152C654.455 82.0679 659.045 53.5679 644.297 33.1586C629.55 12.7494 601.05 8.15942 580.641 22.9067L438.359 125.716C462.762 144.955 481.616 170.149 493.309 198.508L634.045 96.8152ZM210.112 403.14C186.613 382.922 168.806 356.969 158.305 328.077L19.3988 428.447C-1.0104 443.195 -5.60037 471.695 9.1469 492.104C23.8942 512.513 52.3942 517.103 72.8034 502.356L210.112 403.14Z" fill="#65B2FF"/>
<path opacity="0.8" d="M297.262 375.873C235.38 359.291 198.656 295.684 215.238 233.802C231.819 171.92 295.426 135.197 357.308 151.778C419.19 168.359 455.914 231.966 439.332 293.848C422.751 355.73 359.144 392.454 297.262 375.873Z" fill="#65B2FF"/>
</g>
</svg>
