<svg width="43" height="36" viewBox="0 0 43 36" fill="none" xmlns="http://www.w3.org/2000/svg">
<path fill-rule="evenodd" clip-rule="evenodd" d="M41.5352 6.93518C42.8491 5.98583 43.1445 4.15116 42.1952 2.83732C41.2459 1.52349 39.4112 1.22801 38.0973 2.17736L28.9391 8.79491C30.5099 10.0335 31.7235 11.6554 32.4761 13.4811L41.5352 6.93518ZM14.2458 26.6539C12.7329 25.3525 11.5865 23.6819 10.9104 21.822L1.96769 28.2838C0.653858 29.2332 0.358381 31.0678 1.30773 32.3817C2.25708 33.6955 4.09175 33.991 5.40558 33.0416L14.2458 26.6539Z" fill="#94CAFF"/>
<path d="M21.7836 35.0559C12.2989 35.0559 4.61007 27.3671 4.61007 17.8825C4.61007 8.39781 12.2989 0.708983 21.7836 0.708984C31.2682 0.708984 38.957 8.39781 38.957 17.8825C38.957 27.3671 31.2682 35.0559 21.7836 35.0559ZM21.7836 6.44791C15.4684 6.44791 10.349 11.5673 10.349 17.8825C10.349 24.1976 15.4684 29.317 21.7836 29.317C28.0987 29.317 33.2181 24.1976 33.2181 17.8825C33.2181 11.5673 28.0987 6.44791 21.7836 6.44791Z" fill="#005BE3"/>
<path d="M19.9084 24.8797C16.0438 23.8442 13.7504 19.8719 14.7859 16.0073C15.8214 12.1427 19.7937 9.84929 23.6583 10.8848C27.5229 11.9203 29.8163 15.8926 28.7808 19.7572C27.7453 23.6218 23.773 25.9152 19.9084 24.8797Z" fill="white"/>
</svg>
